<svg xmlns="http://www.w3.org/2000/svg" viewBox="0 0 800 168.89">
  <defs>
    <style>.cls-1{fill:#7bc143;}.cls-2{fill:none;}</style>
  </defs>
    <path id="_Compound_Path_" data-name="&lt;Compound Path&gt;" class="cls-1"
          d="M88.63,71H74.37V56.83H88.63V42l19.31-6.2v21h17.15V71H107.94v34.59c0,6.34,1.73,12.25,9.08,12.25,3.46,0,6.77-.72,8.79-2l.58,15.28a50.78,50.78,0,0,1-14.27,1.73c-15.13,0-23.49-9.37-23.49-24.07Z"/>
    <path id="_Compound_Path_2" data-name="&lt;Compound Path&gt;" class="cls-1"
          d="M134.45,56.83h18V67.21h.29a26.15,26.15,0,0,1,22-12.1c10.37,0,17.72,3.89,21.9,13.11,4.47-8.93,14.12-13.11,23.2-13.11,18.3,0,23.49,12.54,23.49,29.11V131H224.08V86.81c0-6.92,0-16.72-11.1-16.72-12.83,0-14.41,15.28-14.41,24.93v36H179.26V86.81c0-6.92,0-16.72-11.1-16.72-12.83,0-14.41,15.28-14.41,24.93v36H134.45Z"/>
    <path id="_Compound_Path_3" data-name="&lt;Compound Path&gt;" class="cls-1"
          d="M387.74,72.4c-5.91-2-10.23-3.17-17.29-3.17-5.19,0-11.38,1.87-11.38,8.21,0,11.82,33.58,4.32,33.58,31.13,0,17.29-15.42,24.21-31.13,24.21a86.51,86.51,0,0,1-21.91-3.17l1.15-15.85a42.42,42.42,0,0,0,19,4.9c4.9,0,12.68-1.87,12.68-9.08,0-14.56-33.58-4.61-33.58-31.42,0-16,14-23.06,29.11-23.06,9.08,0,15,1.44,21,2.74Z"/>
    <path id="_Compound_Path_4" data-name="&lt;Compound Path&gt;" class="cls-1"
          d="M404,56.83h18.45V67.35h.29c4.32-7.2,11.67-12.25,23.06-12.25,22.77,0,31.13,18.16,31.13,38.62s-8.36,39.05-31.56,39.05c-8.21,0-15-2-21.76-10.23h-.29v38.76H404Zm19.45,36.89c0,10.52,4.18,24.07,17,24.07S456.75,104,456.75,93.72c0-9.94-3.46-23.63-16-23.63S423.47,83.35,423.47,93.72Z"/>
    <path id="_Compound_Path_5" data-name="&lt;Compound Path&gt;" class="cls-1"
          d="M488.44,23h19.31v44H508c4.9-7.2,13.26-11.82,23.35-11.82C549,55.1,556.6,67.5,556.6,84.21V131H537.29V91.42c0-9.08-.14-21.33-12.54-21.33-14,0-17,15.13-17,24.64V131H488.44Z"/>
    <path id="_Compound_Path_6" data-name="&lt;Compound Path&gt;" class="cls-1"
          d="M632.39,126.87c-7.06,3.89-15.13,5.91-25.51,5.91-24.5,0-38.76-14.12-38.76-38.48,0-21.47,11.39-39.2,34.44-39.2,27.52,0,35.31,18.88,35.31,44.82h-51.3c.86,12,9.22,18.73,21.18,18.73,9.37,0,17.44-3.46,24.64-7.49Zm-13-40.21c-.58-9.37-4.9-17.44-15.71-17.44s-16.29,7.49-17.15,17.44Z"/>
    <path id="_Compound_Path_7" data-name="&lt;Compound Path&gt;" class="cls-1"
          d="M649.81,56.83H667V73.69h.29c.86-6.92,8.79-18.59,20.32-18.59a21.1,21.1,0,0,1,5.91.58V75.13c-1.73-1-5.19-1.58-8.64-1.58-15.71,0-15.71,19.6-15.71,30.26V131H649.81Z"/>
    <path id="_Compound_Path_8" data-name="&lt;Compound Path&gt;" class="cls-1"
          d="M758.74,126.87c-7.06,3.89-15.13,5.91-25.51,5.91-24.5,0-38.76-14.12-38.76-38.48,0-21.47,11.39-39.2,34.44-39.2,27.52,0,35.31,18.88,35.31,44.82h-51.3c.86,12,9.22,18.73,21.18,18.73,9.37,0,17.44-3.46,24.64-7.49Zm-13-40.21c-.58-9.37-4.9-17.44-15.71-17.44s-16.29,7.49-17.15,17.44Z"/>
    <g id="_Group_" data-name="&lt;Group&gt;">
      <path id="_Compound_Path_9" data-name="&lt;Compound Path&gt;" class="cls-1"
            d="M770.9,111.8a15,15,0,0,1,3.28-4.76,15.31,15.31,0,0,1,4.84-3.16,15.15,15.15,0,0,1,19.77,7.92,14.53,14.53,0,0,1,1.21,5.92,14.86,14.86,0,0,1-1.21,6,15.33,15.33,0,0,1-3.26,4.8,14.68,14.68,0,0,1-4.8,3.16,15.72,15.72,0,0,1-11.71,0,14.82,14.82,0,0,1-4.84-3.16,15.07,15.07,0,0,1-3.28-4.8,14.8,14.8,0,0,1-1.21-6A14.47,14.47,0,0,1,770.9,111.8Zm2.48,11.06A12.56,12.56,0,0,0,776,127a12.17,12.17,0,0,0,4,2.72,12.3,12.3,0,0,0,4.94,1,12.07,12.07,0,0,0,4.88-1,12.2,12.2,0,0,0,3.93-2.72,12.57,12.57,0,0,0,2.62-4.09,13.66,13.66,0,0,0,.95-5.14,13.3,13.3,0,0,0-.95-5,12.25,12.25,0,0,0-6.55-6.75,12,12,0,0,0-4.88-1,12.29,12.29,0,0,0-8.89,3.69,12.42,12.42,0,0,0-2.62,4.05,13.3,13.3,0,0,0-.95,5A13.66,13.66,0,0,0,773.37,122.87ZM785.81,109a7.23,7.23,0,0,1,4.66,1.25A4.63,4.63,0,0,1,792,114a4.28,4.28,0,0,1-1.33,3.49,6,6,0,0,1-3.31,1.31l5,7.78h-2.94l-4.8-7.58h-2.9v7.58H779V109Zm-1.21,7.82c.62,0,1.2,0,1.75-.06a4.45,4.45,0,0,0,1.47-.34,2.31,2.31,0,0,0,1-.87,3,3,0,0,0,.39-1.63,2.54,2.54,0,0,0-.35-1.41,2.3,2.3,0,0,0-.89-.81,4,4,0,0,0-1.25-.38,9.83,9.83,0,0,0-1.39-.1h-3.62v5.6Z"/>
    </g>
    <path class="cls-1"
          d="M8.4,59.36a69.14,69.14,0,0,1,26.85-5.85c23.55,0,33.3,9.75,33.3,32.55V96c0,7.8.15,13.65.3,19.35.15,5.85.45,11.25.9,17.25H52.06a94.32,94.32,0,0,1-.9-11.55h-.3c-4.65,8.55-14.7,13.35-23.85,13.35-13.65,0-27-8.25-27-23,0-11.55,5.55-18.3,13.2-22.05s17.55-4.5,26-4.5h11.1c0-12.45-5.55-16.65-17.4-16.65A40.42,40.42,0,0,0,9,76.62ZM32,119.67a17.06,17.06,0,0,0,14.1-6.9c3.3-4.35,4.2-9.9,4.2-15.9h-8.7c-9,0-22.35,1.5-22.35,13.35C19.2,116.82,24.75,119.67,32,119.67Z"/>
    <path class="cls-1"
          d="M295,95.38q3.14-2.94,6.34-5.76a49.18,49.18,0,0,0-2.9-13.24q-2.77,2.26-5.52,4.6a40.88,40.88,0,0,1,2.11,13C295.06,94.44,295,94.91,295,95.38Z"/>
    <path class="cls-1"
          d="M303.91,72.06a55.57,55.57,0,0,1,3.51,12.39C474.37-54.46,754.2,34.88,754.2,34.88S479.46-64.41,303.91,72.06Z"/>
    <path class="cls-1"
          d="M288.42,94a34.36,34.36,0,0,0-1-8.14q-2.87,2.58-5.69,5.26a26.1,26.1,0,0,1,.18,2.89,25.53,25.53,0,0,1-5.87,16.35l-5-4.39a18.89,18.89,0,0,0,3.83-8.19,324.9,324.9,0,0,0-53,71.14h16.26A298.51,298.51,0,0,1,287.22,103,34.32,34.32,0,0,0,288.42,94Z"/>
    <path class="cls-1"
          d="M291.13,51.48a41.36,41.36,0,1,0,41.36,41.36A41.36,41.36,0,0,0,291.13,51.48Zm-20,54.45a19.08,19.08,0,0,0,0-23.92l4.73-4.69a25.72,25.72,0,0,1,.23,33Zm15.13,13.39-5-4.41a34.21,34.21,0,0,0-.47-42.5l4.73-4.68a40.83,40.83,0,0,1,.7,51.59Zm10,8.85-5-4.4a49.44,49.44,0,0,0-.59-61.12L295.39,58A56.08,56.08,0,0,1,296.22,128.18Z"/>
    <path class="cls-2" d="M358.75,118"/>
</svg>
